<svg xmlns="http://www.w3.org/2000/svg" width="64" height="64" viewBox="0 0 64 64">
  <!-- White version of shield for imitator Bastin -->
  <path d="M32 4 C20 8, 12 16, 12 28 C12 40, 20 50, 32 58 C44 50, 52 40, 52 28 C52 16, 44 8, 32 4 Z" 
        fill="#ffffff" stroke="#e0e7ff" stroke-width="2"/>
  <path d="M32 10 C22 13, 16 19, 16 28 C16 37, 22 45, 32 52 C42 45, 48 37, 48 28 C48 19, 42 13, 32 10 Z" 
        fill="#f5f7ff"/>
  <!-- Cross pattern -->
  <line x1="32" y1="16" x2="32" y2="44" stroke="#e0e7ff" stroke-width="2"/>
  <line x1="20" y1="30" x2="44" y2="30" stroke="#e0e7ff" stroke-width="2"/>
</svg>
