<svg xmlns="http://www.w3.org/2000/svg" width="128" height="128" viewBox="0 0 128 128">
  <defs>
    <linearGradient id="g" x1="0" y1="0" x2="0" y2="1">
      <stop offset="0" stop-color="#7fd8ff" stop-opacity="1"/>
      <stop offset="1" stop-color="#3aa7e8" stop-opacity="1"/>
    </linearGradient>
    <linearGradient id="strokeG" x1="0" y1="0" x2="1" y2="1">
      <stop offset="0" stop-color="#c8f2ff"/>
      <stop offset="1" stop-color="#66d0ff"/>
    </linearGradient>
  </defs>
  <g fill="none" stroke="url(#strokeG)" stroke-width="4">
    <path fill="url(#g)" d="M64 8c16 10 32 10 48 8v44c0 28-22 44-48 60C38 104 16 88 16 60V16c16 2 32 2 48-8z"/>
    <path opacity="0.35" d="M64 18c13 7 25 8 38 6v34c0 22-17 36-38 49C43 94 26 80 26 58V24c13 2 25 1 38-6z"/>
  </g>
</svg>

