<svg xmlns="http://www.w3.org/2000/svg" width="128" height="128" viewBox="0 0 128 128">
  <!-- Beach/water boss - octopus-like creature -->
  <defs>
    <radialGradient id="beachBossGlow" cx="0.4" cy="0.4" r="0.8">
      <stop offset="0" stop-color="#4a90e2"/>
      <stop offset="0.6" stop-color="#357abd"/>
      <stop offset="1" stop-color="#2c5aa0"/>
    </radialGradient>
    <radialGradient id="tentacleGrad" cx="0.3" cy="0.3" r="0.7">
      <stop offset="0" stop-color="#5ba3f5"/>
      <stop offset="1" stop-color="#3578c4"/>
    </radialGradient>
  </defs>
  
  <!-- Main body -->
  <ellipse cx="64" cy="60" rx="28" ry="32" fill="url(#beachBossGlow)"/>
  
  <!-- Tentacles -->
  <path d="M45 75 Q30 85 25 95 Q20 105 35 100 Q45 95 50 85" fill="url(#tentacleGrad)" stroke="#2c5aa0" stroke-width="2"/>
  <path d="M83 75 Q98 85 103 95 Q108 105 93 100 Q83 95 78 85" fill="url(#tentacleGrad)" stroke="#2c5aa0" stroke-width="2"/>
  <path d="M55 85 Q45 100 40 110 Q35 115 45 115 Q55 110 60 95" fill="url(#tentacleGrad)" stroke="#2c5aa0" stroke-width="2"/>
  <path d="M73 85 Q83 100 88 110 Q93 115 83 115 Q73 110 68 95" fill="url(#tentacleGrad)" stroke="#2c5aa0" stroke-width="2"/>
  
  <!-- Eyes -->
  <circle cx="55" cy="50" r="6" fill="#ffffff"/>
  <circle cx="73" cy="50" r="6" fill="#ffffff"/>
  <circle cx="55" cy="50" r="3" fill="#1a1a1a"/>
  <circle cx="73" cy="50" r="3" fill="#1a1a1a"/>
  
  <!-- Mouth -->
  <ellipse cx="64" cy="65" rx="8" ry="4" fill="#1a1a1a"/>
  
  <!-- Water droplets around boss -->
  <circle cx="35" cy="40" r="3" fill="#87ceeb" opacity="0.8"/>
  <circle cx="93" cy="45" r="2" fill="#87ceeb" opacity="0.6"/>
  <circle cx="25" cy="65" r="2.5" fill="#87ceeb" opacity="0.7"/>
  <circle cx="105" cy="70" r="2" fill="#87ceeb" opacity="0.5"/>
</svg>
