<svg xmlns="http://www.w3.org/2000/svg" width="128" height="128" viewBox="0 0 128 128">
  <defs>
    <radialGradient id="forestCore" cx="0.5" cy="0.45" r="0.6">
      <stop offset="0" stop-color="#a5d6a7"/>
      <stop offset="0.6" stop-color="#66bb6a"/>
      <stop offset="1" stop-color="#2e7d32"/>
    </radialGradient>
    <linearGradient id="bark" x1="0" y1="0" x2="1" y2="1">
      <stop offset="0" stop-color="#5d4037"/>
      <stop offset="1" stop-color="#3e2723"/>
    </linearGradient>
  </defs>
  <!-- body -->
  <ellipse cx="64" cy="70" rx="44" ry="36" fill="url(#forestCore)"/>
  <!-- wooden antlers -->
  <path d="M26 40 C 18 28, 32 24, 40 36 C 30 30, 28 46, 26 40 Z" fill="url(#bark)"/>
  <path d="M102 40 C 110 28, 96 24, 88 36 C 98 30, 100 46, 102 40 Z" fill="url(#bark)"/>
  <!-- eye slits -->
  <path d="M46 66 q 8 -6 16 0" stroke="#1b5e20" stroke-width="5" fill="none" stroke-linecap="round"/>
  <path d="M66 66 q 8 -6 16 0" stroke="#1b5e20" stroke-width="5" fill="none" stroke-linecap="round"/>
  <!-- leaf shine -->
  <ellipse cx="50" cy="52" rx="18" ry="10" fill="#c8e6c9" opacity="0.5"/>
  <!-- bark mouth -->
  <rect x="48" y="82" width="32" height="6" rx="3" fill="url(#bark)"/>
</svg>

